<svg xmlns="http://www.w3.org/2000/svg" viewBox="18 18 72 72" width="512" height="512">
  <!-- Собранная иконка так, как её обрежет маска лаунчера (центральные 72x72 из 108x108). -->
  <defs>
    <linearGradient id="bg" x1="18" y1="18" x2="90" y2="90" gradientUnits="userSpaceOnUse">
      <stop offset="0" stop-color="#1B2C38"/>
      <stop offset="1" stop-color="#0E1820"/>
    </linearGradient>
    <clipPath id="mask">
      <rect x="18" y="18" width="72" height="72" rx="16"/>
    </clipPath>
    <clipPath id="armClipFull">
      <rect x="32" y="57.5" width="52" height="9" rx="4.5"/>
    </clipPath>
  </defs>
  <g clip-path="url(#mask)">
    <rect x="18" y="18" width="72" height="72" fill="url(#bg)"/>
    <g transform="translate(-1.25,-2)">
      <path d="M33.5,60 L42.5,60 L42.5,73.5 A4.5,4.5 0 0 1 33.5,73.5 Z" fill="#7C8C98"/>
      <g transform="rotate(-32 38 62)">
        <g clip-path="url(#armClipFull)">
          <rect x="32" y="57.5" width="6" height="9" fill="#26333D"/>
          <rect x="38" y="57.5" width="11.5" height="9" fill="#FFFFFF"/>
          <rect x="49.5" y="57.5" width="11.5" height="9" fill="#E23B2E"/>
          <rect x="61" y="57.5" width="11.5" height="9" fill="#FFFFFF"/>
          <rect x="72.5" y="57.5" width="11.5" height="9" fill="#E23B2E"/>
        </g>
      </g>
      <circle cx="38" cy="62" r="5.5" fill="#C3CFD7"/>
      <circle cx="38" cy="62" r="2" fill="#26333D"/>
    </g>
  </g>
</svg>
